<?xml version="1.0" standalone="no"?>
<!DOCTYPE svg PUBLIC "-//W3C//DTD SVG 20010904//EN"
 "http://www.w3.org/TR/2001/REC-SVG-20010904/DTD/svg10.dtd">
<svg version="1.0" xmlns="http://www.w3.org/2000/svg"
 width="50.000000pt" height="50.000000pt" viewBox="0 0 50.000000 50.000000"
 preserveAspectRatio="xMidYMid meet">

<g transform="translate(0.000000,50.000000) scale(0.100000,-0.100000)"
fill="#000000" stroke="none">
<path d="M175 483 c5 -10 10 -33 13 -51 l4 -33 -37 26 c-21 14 -48 25 -61 25
-28 0 -28 0 -9 -36 9 -18 15 -57 15 -106 0 -84 10 -121 42 -155 12 -13 16 -23
10 -23 -7 0 -12 -13 -12 -30 0 -16 5 -30 10 -30 6 0 10 -16 10 -35 l0 -35 100
0 100 0 0 35 c0 19 5 35 10 35 6 0 10 14 10 30 0 17 -4 30 -9 30 -5 0 2 20 16
45 13 25 29 45 34 45 14 0 10 27 -7 44 -21 21 -50 20 -73 -3 -12 -12 -27 -17
-40 -14 -20 5 -20 5 0 41 36 68 15 146 -50 189 -42 28 -87 32 -76 6z m89 -42
c43 -45 45 -93 6 -166 -24 -45 -31 -68 -27 -87 13 -49 82 -48 93 0 10 51 23
72 44 72 25 0 25 -2 -5 -66 -18 -38 -33 -56 -50 -60 -67 -17 -141 31 -152 99
-3 23 2 61 17 108 14 46 19 84 16 105 -6 28 -4 32 13 27 10 -3 31 -17 45 -32z
m-109 -41 c13 -14 16 -28 11 -52 -19 -99 -19 -127 2 -163 25 -41 16 -46 -17
-11 -24 25 -26 37 -35 179 -4 72 5 84 39 47z m160 -200 c0 -18 -6 -26 -23 -28
-13 -2 -25 3 -28 12 -10 26 4 48 28 44 17 -2 23 -10 23 -28z m45 -100 c0 -6
-40 -10 -100 -10 -60 0 -100 4 -100 10 0 6 40 10 100 10 60 0 100 -4 100 -10z
m-20 -55 c0 -25 -1 -25 -80 -25 -79 0 -80 0 -80 25 0 25 1 25 80 25 79 0 80 0
80 -25z"/>
</g>
</svg>
